HIERARCHY
ROOT Hips
{
	OFFSET 0.000000 0.000000 0.000000
	CHANNELS 6 Xposition Yposition Zposition Zrotation Yrotation Xrotation 
	JOINT LHipJoint
	{
		OFFSET 0.000000 0.000000 0.000000
		CHANNELS 3 Zrotation Yrotation Xrotation
		JOINT LeftUpLeg
		{
			OFFSET 1.363060 -1.794630 0.839290
			CHANNELS 3 Zrotation Yrotation Xrotation
			JOINT LeftLeg
			{
				OFFSET 2.448110 -6.726130 0.000000
				CHANNELS 3 Zrotation Yrotation Xrotation
				JOINT LeftFoot
				{
					OFFSET 2.562200 -7.039590 0.000000
					CHANNELS 3 Zrotation Yrotation Xrotation
					JOINT LeftToeBase
					{
						OFFSET 0.157640 -0.433110 2.322550
						CHANNELS 3 Zrotation Yrotation Xrotation
						End Site
						{
							OFFSET 0.000000 0.000000 0.000000
						}
					}
				}
			}
		}
	}
	JOINT RHipJoint
	{
		OFFSET 0.000000 0.000000 0.000000
		CHANNELS 3 Zrotation Yrotation Xrotation
		JOINT RightUpLeg
		{
			OFFSET -1.305520 -1.794630 0.839290
			CHANNELS 3 Zrotation Yrotation Xrotation
			JOINT RightLeg
			{
				OFFSET -2.542530 -6.985550 0.000000
				CHANNELS 3 Zrotation Yrotation Xrotation
				JOINT RightFoot
				{
					OFFSET -2.568260 -7.056230 0.000000
					CHANNELS 3 Zrotation Yrotation Xrotation
					JOINT RightToeBase
					{
						OFFSET -0.164730 -0.452590 2.363150
						CHANNELS 3 Zrotation Yrotation Xrotation
						End Site
						{
							OFFSET 0.000000 0.000000 0.000000
						}
					}
				}
			}
		}
	}
	JOINT LowerBack
	{
		OFFSET 0.000000 0.000000 0.000000
		CHANNELS 3 Zrotation Yrotation Xrotation
		JOINT Spine
		{
			OFFSET 0.028270 2.035590 -0.193380
			CHANNELS 3 Zrotation Yrotation Xrotation
			JOINT Spine1
			{
				OFFSET 0.056720 2.048850 -0.042750
				CHANNELS 3 Zrotation Yrotation Xrotation
				JOINT Neck
				{
					OFFSET 0.000000 0.000000 0.000000
					CHANNELS 3 Zrotation Yrotation Xrotation
					JOINT Neck1
					{
						OFFSET -0.054170 1.746240 0.172020
						CHANNELS 3 Zrotation Yrotation Xrotation
						JOINT Head
						{
							OFFSET 0.104070 1.761360 -0.123970
							CHANNELS 3 Zrotation Yrotation Xrotation
							End Site
							{
								OFFSET 0.000000 0.000000 0.000000
							}
						}
					}
				}
				JOINT LeftShoulder
				{
					OFFSET 0.000000 0.000000 0.000000
					CHANNELS 3 Zrotation Yrotation Xrotation
					JOINT LeftArm
					{
						OFFSET 3.362410 1.200890 -0.311210
						CHANNELS 3 Zrotation Yrotation Xrotation
						JOINT LeftForeArm
						{
							OFFSET 4.983000 -0.000000 -0.000000
							CHANNELS 3 Zrotation Yrotation Xrotation
							JOINT LeftHand
							{
								OFFSET 3.483560 -0.000000 -0.000000
								CHANNELS 3 Zrotation Yrotation Xrotation
								JOINT LeftFingerBase
								{
									OFFSET 0.000000 0.000000 0.000000
									CHANNELS 3 Zrotation Yrotation Xrotation
									JOINT LeftHandIndex1
									{
										OFFSET 0.715260 -0.000000 -0.000000
										CHANNELS 3 Zrotation Yrotation Xrotation
										End Site
										{
											OFFSET 0.000000 0.000000 0.000000
										}
									}
								}
								JOINT LThumb
								{
									OFFSET 0.000000 0.000000 0.000000
									CHANNELS 3 Zrotation Yrotation Xrotation
									End Site
									{
										OFFSET 0.000000 0.000000 0.000000
									}
								}
							}
						}
					}
				}
				JOINT RightShoulder
				{
					OFFSET 0.000000 0.000000 0.000000
					CHANNELS 3 Zrotation Yrotation Xrotation
					JOINT RightArm
					{
						OFFSET -3.136600 1.374050 -0.404650
						CHANNELS 3 Zrotation Yrotation Xrotation
						JOINT RightForeArm
						{
							OFFSET -5.241900 -0.000000 -0.000000
							CHANNELS 3 Zrotation Yrotation Xrotation
							JOINT RightHand
							{
								OFFSET -3.444170 -0.000000 -0.000000
								CHANNELS 3 Zrotation Yrotation Xrotation
								JOINT RightFingerBase
								{
									OFFSET 0.000000 0.000000 0.000000
									CHANNELS 3 Zrotation Yrotation Xrotation
									JOINT RightHandIndex1
									{
										OFFSET -0.622530 -0.000000 -0.000000
										CHANNELS 3 Zrotation Yrotation Xrotation
										End Site
										{
											OFFSET 0.000000 0.000000 0.000000
										}
									}
								}
								JOINT RThumb
								{
									OFFSET 0.000000 0.000000 0.000000
									CHANNELS 3 Zrotation Yrotation Xrotation
									End Site
									{
										OFFSET 0.000000 0.000000 0.000000
									}
								}
							}
						}
					}
				}
			}
		}
	}
}
MOTION
Frames: 12
Frame Time: 0.008333
4.937943 15.582147 -2.225053 -176.274218 40.809262 -151.198562 -12.941305 0.277762 -2.762861 -3.696514 -0.755991 -14.749134 -1.726569 2.056951 44.368470 1.981799 7.437103 -27.399780 -3.094000 0.000001 -50.295400 6.541614 1.136799 -0.496780 9.738541 5.087377 -66.873880 1.882604 -4.579204 49.976324 1.636780 11.930603 -2.394522 1.169500 0.000000 -40.646000 4.777446 -3.429912 9.101703 0.390975 -3.460164 -1.093067 -5.519550 -3.351310 -0.318581 2.960581 -11.042794 -5.177925 -3.291085 -0.248875 0.292675 0.000000 0.000000 0.000000 5.827136 3.427126 0.323371 -72.844827 -1.885864 13.162660 -179.435339 -84.146341 -179.976158 -4.039369 8.316691 -0.289014 0.051735 0.220933 -0.000000 0.000000 0.000000 0.000000 0.000000 0.000000 0.000000 5.556846 -8.289771 0.664590 69.119450 -9.986848 5.652240 0.413395 76.436804 -0.011906 -3.827108 2.014202 -0.076041 0.073765 -0.237097 0.000000 0.000000 0.000000 0.000000 0.000000 0.000000 0.000000 
5.058557 15.572152 -2.298113 -176.223634 40.098678 -151.124292 -13.088277 0.318227 -2.790316 -3.110343 -0.497565 -15.637088 -1.542248 2.278781 46.356583 1.831997 7.351929 -25.679519 -2.749201 0.000000 -52.839400 6.527848 1.117829 -0.599598 10.010829 4.968839 -66.871113 1.815025 -4.660716 51.301607 1.508678 11.282561 -3.774662 0.875000 -0.000000 -39.135100 5.081506 -3.416271 9.195044 0.438971 -3.443783 -1.086794 -5.560564 -3.340583 -0.369511 3.182943 -10.790637 -5.130017 -3.299506 -0.249497 0.303481 0.000000 0.000000 0.000000 5.691204 3.331803 0.400292 -73.162644 -1.278744 12.741438 -179.542097 -85.457624 -179.978631 -3.714423 8.388220 -0.267989 0.044521 0.216314 -0.000000 0.000000 0.000000 0.000000 0.000000 0.000000 0.000000 5.849837 -8.071473 0.638864 69.120151 -9.325251 5.453099 0.415703 76.281121 -0.012892 -4.034994 1.955461 -0.078144 0.076465 -0.239045 0.000000 0.000000 0.000000 0.000000 0.000000 0.000000 0.000000 
5.176116 15.565317 -2.369354 -176.186058 39.382475 -151.028671 -13.227389 0.342406 -2.806489 -2.558390 -0.321910 -16.611151 -1.336101 2.494802 48.380657 1.710468 7.368480 -23.921539 -2.439300 0.000000 -54.377500 6.511014 1.093404 -0.693110 10.282688 4.867779 -66.819406 1.761686 -4.725481 52.437224 1.370279 10.585742 -5.114424 0.617300 0.000000 -38.064400 5.370039 -3.393410 9.279926 0.483149 -3.418446 -1.080335 -5.600452 -3.321242 -0.416968 3.416309 -10.525241 -5.074844 -3.303662 -0.249905 0.316255 0.000000 0.000000 0.000000 5.575762 3.228070 0.476894 -73.492803 -0.739374 12.299458 -179.651854 -86.881783 -179.981360 -3.342148 8.469111 -0.243362 0.036516 0.211558 -0.000000 0.000000 0.000000 0.000000 0.000000 0.000000 0.000000 6.139589 -7.839536 0.613474 69.143440 -8.660746 5.219260 0.417631 76.104150 -0.013955 -4.252424 1.884272 -0.079749 0.079124 -0.240940 0.000000 0.000000 0.000000 0.000000 0.000000 0.000000 0.000000 
5.290831 15.561406 -2.438626 -176.175499 38.670013 -150.926058 -13.353961 0.350316 -2.813332 -2.062083 -0.226392 -17.643179 -1.117354 2.700088 50.407583 1.622612 7.489989 -22.209991 -2.172000 -0.000000 -54.677700 6.495327 1.067517 -0.777402 10.534197 4.779787 -66.719522 1.717491 -4.774393 53.388705 1.227454 9.876380 -6.349367 0.407800 -0.000000 -37.455699 5.632127 -3.363670 9.358327 0.521904 -3.386354 -1.073312 -5.636746 -3.295416 -0.460733 3.656389 -10.257467 -5.012296 -3.302347 -0.250033 0.331119 0.000000 0.000000 0.000000 5.478457 3.105237 0.551887 -73.824859 -0.245309 11.828598 -179.761936 -88.389550 -179.984311 -2.922102 8.555663 -0.214738 0.027963 0.206660 -0.000000 0.000000 0.000000 0.000000 0.000000 0.000000 0.000000 6.416015 -7.605579 0.588882 69.186259 -7.978299 4.975774 0.419457 75.903694 -0.015047 -4.468391 1.800402 -0.080556 0.081646 -0.242714 0.000000 0.000000 0.000000 0.000000 0.000000 0.000000 0.000000 
5.402858 15.560109 -2.506069 -176.194473 37.959551 -150.819094 -13.466568 0.341386 -2.810946 -1.626505 -0.200651 -18.726582 -0.893752 2.892097 52.424143 1.570192 7.717176 -20.616281 -1.950599 -0.000000 -53.576900 6.483185 1.041300 -0.852256 10.759774 4.695748 -66.584075 1.680135 -4.810553 54.178026 1.086365 9.187888 -7.453298 0.246100 -0.000000 -37.097800 5.866297 -3.324333 9.426923 0.554925 -3.345027 -1.066054 -5.669474 -3.260535 -0.498746 3.903407 -9.984252 -4.941723 -3.296541 -0.249966 0.348311 0.000000 0.000000 0.000000 5.402523 2.977798 0.625588 -74.156986 0.183046 11.357702 -179.871182 -89.985173 -179.987375 -2.473049 8.649700 -0.183416 0.019103 0.201540 -0.000000 0.000000 0.000000 0.000000 0.000000 0.000000 0.000000 6.683435 -7.365004 0.562284 69.237153 -7.301474 4.722250 0.420462 75.705219 -0.016168 -4.683911 1.714027 -0.080861 0.084018 -0.244494 0.000000 0.000000 0.000000 0.000000 0.000000 0.000000 0.000000 
5.512240 15.561193 -2.571772 -176.247244 37.258884 -150.715640 -13.563102 0.316646 -2.802883 -1.263713 -0.228499 -19.844329 -0.674927 3.069110 54.407140 1.553402 8.048923 -19.223560 -1.779700 0.000000 -51.161900 6.477089 1.017711 -0.918248 10.947303 4.611278 -66.419459 1.646458 -4.835812 54.826070 0.952202 8.543032 -8.406764 0.127900 0.000000 -36.952600 6.067387 -3.277930 9.488524 0.581624 -3.296865 -1.057907 -5.697216 -3.218869 -0.529985 4.153600 -9.716125 -4.864717 -3.285838 -0.249664 0.367396 0.000000 0.000000 0.000000 5.341798 2.844157 0.697386 -74.477130 0.563201 10.885489 0.022740 -88.361871 0.009495 -1.999208 8.748032 -0.149598 0.010123 0.196207 -0.000000 0.000000 0.000000 0.000000 0.000000 0.000000 0.000000 6.935968 -7.129232 0.533561 69.288961 -6.613322 4.484679 0.420965 75.508490 -0.017272 -4.890234 1.626198 -0.080768 0.086188 -0.246225 0.000000 0.000000 0.000000 0.000000 0.000000 0.000000 0.000000 
5.619020 15.564418 -2.635943 -176.332640 36.571615 -150.617673 -13.643424 0.277282 -2.792060 -0.976751 -0.289732 -20.989668 -0.468020 3.231273 56.342614 1.570065 8.483001 -18.093415 -1.662199 -0.000000 -47.585400 6.478135 0.998008 -0.976092 11.093905 4.521093 -66.235387 1.615213 -4.852701 55.359147 0.828584 7.957056 -9.217266 0.044300 0.000000 -36.890800 6.235436 -3.225209 9.544246 0.602217 -3.242610 -1.048667 -5.719582 -3.171073 -0.553705 4.404472 -9.456053 -4.782076 -3.270785 -0.249158 0.388123 0.000000 0.000000 0.000000 5.291128 2.709962 0.767559 -74.776640 0.900214 10.422245 -0.078657 -86.672031 0.006383 -1.513669 8.850535 -0.114085 0.001237 0.190635 -0.000000 0.000000 0.000000 0.000000 0.000000 0.000000 0.000000 7.172844 -6.901130 0.501832 69.332430 -5.913337 4.276397 0.420915 75.323005 -0.018344 -5.084563 1.542380 -0.080275 0.088153 -0.247946 0.000000 0.000000 0.000000 0.000000 0.000000 0.000000 0.000000 
5.723193 15.569585 -2.698780 -176.446805 35.899021 -150.525530 -13.708306 0.224244 -2.781189 -0.763852 -0.364075 -22.161101 -0.279512 3.380039 58.224763 1.617000 9.011825 -17.294445 -1.604699 -0.000000 -42.894500 6.486208 0.982075 -1.026691 11.203683 4.420164 -66.041865 1.586475 -4.863832 55.803319 0.716994 7.436107 -9.909674 -0.013900 -0.000000 -36.795500 6.373734 -3.164925 9.594475 0.617416 -3.181095 -1.038705 -5.736514 -3.115978 -0.570679 4.653770 -9.194542 -4.692036 -3.252550 -0.248545 0.410934 0.000000 0.000000 0.000000 5.248163 2.585563 0.837242 -75.052054 1.189010 9.986450 -0.174978 -84.953937 0.003393 -1.035722 8.955835 -0.078176 -0.007339 0.184848 -0.000000 0.000000 0.000000 0.000000 0.000000 0.000000 0.000000 7.394987 -6.669624 0.465674 69.359346 -5.221556 4.092845 0.419832 75.168171 -0.019380 -5.267022 1.472245 -0.079982 0.089890 -0.249783 0.000000 0.000000 0.000000 0.000000 0.000000 0.000000 0.000000 
5.824668 15.576669 -2.760469 -176.584483 35.248007 -150.440001 -13.758815 0.159654 -2.773980 -0.625452 -0.429246 -23.351406 -0.110620 3.516767 60.030672 1.690332 9.633541 -16.807302 -1.604901 -0.000000 -37.780300 6.500790 0.971054 -1.071739 11.278006 4.307957 -65.841762 1.560173 -4.870447 56.178726 0.616701 6.975982 -10.513174 -0.054700 -0.000000 -36.647100 6.483574 -3.100867 9.643909 0.627853 -3.115867 -1.027028 -5.747536 -3.057005 -0.580306 4.897627 -8.944853 -4.598063 -3.231040 -0.247776 0.434777 0.000000 0.000000 0.000000 5.200730 2.468762 0.906017 -75.289443 1.456084 9.570462 -0.264597 -83.248714 0.000576 -0.571602 9.061360 -0.042571 -0.015435 0.178873 -0.000000 0.000000 0.000000 0.000000 0.000000 0.000000 0.000000 7.598073 -6.449497 0.426085 69.364077 -4.509625 3.961641 0.418401 75.034593 -0.020339 -5.431489 1.412394 -0.079690 0.091419 -0.251635 0.000000 0.000000 0.000000 0.000000 0.000000 0.000000 0.000000 
5.923354 15.585541 -2.821165 -176.738617 34.618631 -150.359593 -13.796720 0.084445 -2.772531 -0.554522 -0.468247 -24.560185 0.036958 3.643556 61.754738 1.786523 10.335923 -16.639987 -1.667000 -0.000000 -32.400900 6.520243 0.963506 -1.112956 11.328589 4.181543 -65.639298 1.537812 -4.874315 56.503324 0.525490 6.568224 -11.066792 -0.084300 -0.000000 -36.376300 6.570548 -3.031173 9.694096 0.634671 -3.045082 -1.013930 -5.752669 -2.992352 -0.584337 5.133590 -8.692017 -4.497899 -3.207254 -0.246934 0.460180 0.000000 0.000000 0.000000 5.148124 2.371427 0.975303 -75.488659 1.693920 9.192955 -0.348222 -81.559694 -0.001965 -0.143515 9.163489 -0.008870 -0.022846 0.172794 -0.000000 0.000000 0.000000 0.000000 0.000000 0.000000 0.000000 7.781688 -6.223336 0.381981 69.343055 -3.803932 3.868198 0.416043 74.939848 -0.021240 -5.582758 1.374546 -0.080095 0.092743 -0.253685 0.000000 0.000000 0.000000 0.000000 0.000000 0.000000 0.000000 
6.019269 15.596266 -2.880932 -176.905585 34.017190 -150.285380 -13.823024 0.000875 -2.779204 -0.549769 -0.467445 -25.781263 0.165565 3.761749 63.379731 1.901964 11.109384 -16.722300 -1.784600 -0.000000 -27.443700 6.543489 0.959942 -1.152132 11.360326 4.042173 -65.432881 1.519909 -4.875675 56.786930 0.440091 6.198330 -11.600903 -0.106400 -0.000001 -36.033400 6.635913 -2.959742 9.749549 0.638398 -2.972368 -0.998528 -5.751760 -2.925551 -0.582872 5.358668 -8.446936 -4.394603 -3.181197 -0.245982 0.486203 0.000000 0.000000 0.000000 5.080025 2.289190 1.044577 -75.639169 1.930371 8.843924 -0.424921 -79.925467 -0.004195 0.243068 9.258182 0.022227 -0.029441 0.166672 -0.000000 0.000000 0.000000 0.000000 0.000000 0.000000 0.000000 7.943105 -6.003561 0.334890 69.294820 -3.078564 3.831447 0.413416 74.872025 -0.022052 -5.713933 1.350245 -0.080901 0.093860 -0.255789 -0.000000 0.000000 0.000000 0.000000 0.000000 0.000000 0.000000 
6.112266 15.608792 -2.939897 -177.076441 33.442460 -150.215671 -13.839467 -0.090181 -2.795315 -0.603126 -0.417031 -27.011896 0.276447 3.872974 64.901483 2.032851 11.933591 -17.014213 -1.955100 -0.000000 -23.085500 6.568508 0.958428 -1.191303 11.386137 3.888835 -65.219558 1.508187 -4.875196 57.035545 0.357116 5.852869 -12.144723 -0.123300 0.000000 -35.606601 6.684645 -2.884791 9.812850 0.640058 -2.895878 -0.980676 -5.744853 -2.854783 -0.577320 5.570673 -8.196986 -4.286793 -3.153243 -0.244948 0.513123 0.000000 0.000000 0.000000 4.998440 2.233139 1.114605 -75.744528 2.156233 8.539721 -0.496084 -78.343586 -0.006042 0.568982 9.338865 0.049022 -0.035079 0.160636 -0.000000 0.000000 0.000000 0.000000 0.000000 0.000000 0.000000 8.080005 -5.775029 0.284178 69.220586 -2.356143 3.833998 0.410033 74.841957 -0.022797 -5.830700 1.347646 -0.082506 0.094783 -0.258092 -0.000000 0.000000 0.000000 0.000000 0.000000 0.000000 0.000000 
